<svg xmlns="http://www.w3.org/2000/svg" xmlns:xlink="http://www.w3.org/1999/xlink" width="500" zoomAndPan="magnify" viewBox="0 0 375 374.999991" height="500" preserveAspectRatio="xMidYMid meet" version="1.0"><defs><g/></defs><rect x="-37.5" width="450" fill="#ffffff" y="-37.499999" height="449.999989" fill-opacity="1"/><rect x="-37.5" width="450" fill="#000000" y="-37.499999" height="449.999989" fill-opacity="1"/><g fill="#ffffff" fill-opacity="1"><g transform="translate(76.936189, 230.502525)"><g><path d="M 45.265625 -100.578125 L 47.359375 -100.578125 L 84.796875 -2.515625 L 91.640625 -2.515625 L 91.640625 0 L 50.015625 0 L 50.015625 -2.515625 L 61.1875 -2.515625 L 50.984375 -31.5625 L 23.890625 -31.5625 C 23.234375 -29.707031 22.507812 -27.59375 21.71875 -25.21875 C 20.925781 -22.84375 20.113281 -20.441406 19.28125 -18.015625 C 18.53125 -15.785156 17.828125 -13.757812 17.171875 -11.9375 C 16.523438 -10.125 16.203125 -8.707031 16.203125 -7.6875 C 16.203125 -4.238281 18.53125 -2.515625 23.1875 -2.515625 L 26.8125 -2.515625 L 26.8125 0 L 1.53125 0 L 1.53125 -2.515625 L 2.796875 -2.515625 C 5.210938 -2.515625 7.234375 -3.210938 8.859375 -4.609375 C 10.492188 -6.003906 11.734375 -7.867188 12.578125 -10.203125 L 14.671875 -15.921875 Z M 37.4375 -69.421875 L 25 -34.078125 L 49.875 -34.078125 L 37.71875 -69.421875 Z M 37.4375 -69.421875 "/></g></g></g><g fill="#ffffff" fill-opacity="1"><g transform="translate(197.198915, 230.502525)"><g><path d="M 94.84375 -48.609375 C 94.84375 -41.992188 93.65625 -35.613281 91.28125 -29.46875 C 88.90625 -23.320312 85.691406 -17.894531 81.640625 -13.1875 C 77.597656 -8.488281 72.875 -4.742188 67.46875 -1.953125 C 62.070312 0.835938 56.296875 2.234375 50.140625 2.234375 C 43.992188 2.234375 38.21875 0.769531 32.8125 -2.15625 C 27.414062 -5.09375 22.738281 -8.910156 18.78125 -13.609375 C 14.820312 -18.316406 11.703125 -23.648438 9.421875 -29.609375 C 7.140625 -35.566406 6 -41.617188 6 -47.765625 C 6 -56.054688 7.234375 -63.484375 9.703125 -70.046875 C 12.171875 -76.617188 15.453125 -82.160156 19.546875 -86.671875 C 23.648438 -91.191406 28.351562 -94.640625 33.65625 -97.015625 C 38.96875 -99.390625 44.460938 -100.578125 50.140625 -100.578125 C 56.660156 -100.578125 62.644531 -99.222656 68.09375 -96.515625 C 73.539062 -93.816406 78.242188 -90.140625 82.203125 -85.484375 C 86.160156 -80.828125 89.253906 -75.332031 91.484375 -69 C 93.722656 -62.664062 94.84375 -55.867188 94.84375 -48.609375 Z M 50.5625 -0.28125 C 54.476562 -0.28125 57.757812 -1.09375 60.40625 -2.71875 C 63.0625 -4.351562 65.203125 -7.054688 66.828125 -10.828125 C 68.460938 -14.597656 69.628906 -19.578125 70.328125 -25.765625 C 71.023438 -31.960938 71.375 -39.671875 71.375 -48.890625 C 71.375 -57.828125 70.882812 -66.046875 69.90625 -73.546875 C 68.9375 -81.046875 67.097656 -86.890625 64.390625 -91.078125 C 62.804688 -93.398438 60.96875 -95.144531 58.875 -96.3125 C 56.78125 -97.476562 53.960938 -98.0625 50.421875 -98.0625 C 46.046875 -98.0625 42.671875 -97.128906 40.296875 -95.265625 C 37.921875 -93.398438 35.941406 -90.65625 34.359375 -87.03125 C 32.492188 -82.832031 31.210938 -77.519531 30.515625 -71.09375 C 29.816406 -64.675781 29.46875 -57.320312 29.46875 -49.03125 C 29.46875 -40 29.816406 -32.382812 30.515625 -26.1875 C 31.210938 -20 32.351562 -14.972656 33.9375 -11.109375 C 35.519531 -7.242188 37.660156 -4.472656 40.359375 -2.796875 C 43.066406 -1.117188 46.46875 -0.28125 50.5625 -0.28125 Z M 50.5625 -0.28125 "/></g></g></g><path stroke-linecap="butt" transform="matrix(0, -0.75, 0.75, 0, 186.744412, 260.460921)" fill="none" stroke-linejoin="miter" d="M -0.0000216048 1.002242 L 194.578116 1.002242 " stroke="#ffffff" stroke-width="2" stroke-opacity="1" stroke-miterlimit="4"/><path fill="#000000" d="M 78.367188 174.644531 L 199.316406 174.644531 L 199.316406 199.605469 L 78.367188 199.605469 L 78.367188 174.644531 " fill-opacity="1" fill-rule="nonzero"/><g fill="#ffffff" fill-opacity="1"><g transform="translate(88.808363, 191.249987)"><g><path d="M 10.078125 0 L 5.90625 -10.359375 L 4.296875 -10.359375 L 0.140625 0 L 1.5625 0 L 2.484375 -2.296875 L 7.734375 -2.296875 L 8.65625 0 Z M 7.34375 -3.453125 L 2.859375 -3.453125 L 5.109375 -9.203125 Z M 7.34375 -3.453125 "/></g></g></g><g fill="#ffffff" fill-opacity="1"><g transform="translate(107.48085, 191.249987)"><g><path d="M 0.59375 -1.453125 C 1.4375 -0.5 2.765625 0.1875 4.5625 0.1875 C 7.359375 0.1875 8.390625 -1.34375 8.390625 -2.859375 C 8.390625 -5.03125 6.46875 -5.5625 4.765625 -6.015625 C 3.453125 -6.375 2.25 -6.671875 2.25 -7.71875 C 2.25 -8.703125 3.140625 -9.359375 4.375 -9.359375 C 5.515625 -9.359375 6.59375 -8.984375 7.375 -8.125 L 8.15625 -9.0625 C 7.28125 -9.984375 6.0625 -10.515625 4.46875 -10.515625 C 2.4375 -10.515625 0.921875 -9.34375 0.921875 -7.640625 C 0.921875 -5.609375 2.765625 -5.140625 4.421875 -4.703125 C 5.796875 -4.328125 7.046875 -3.984375 7.046875 -2.75 C 7.046875 -1.953125 6.46875 -0.96875 4.609375 -0.96875 C 3.15625 -0.96875 2.03125 -1.671875 1.34375 -2.4375 Z M 0.59375 -1.453125 "/></g></g></g><g fill="#ffffff" fill-opacity="1"><g transform="translate(125.036212, 191.249987)"><g><path d="M 2.5 0 L 2.5 -10.359375 L 1.21875 -10.359375 L 1.21875 0 Z M 2.5 0 "/></g></g></g><g fill="#ffffff" fill-opacity="1"><g transform="translate(137.207632, 191.249987)"><g><path d="M 8 0 L 8 -1.15625 L 2.5 -1.15625 L 2.5 -4.71875 L 7.890625 -4.71875 L 7.890625 -5.875 L 2.5 -5.875 L 2.5 -9.203125 L 8 -9.203125 L 8 -10.359375 L 1.21875 -10.359375 L 1.21875 0 Z M 8 0 "/></g></g></g><g fill="#ffffff" fill-opacity="1"><g transform="translate(154.49923, 191.249987)"><g><path d="M 8.734375 0 L 5.9375 -4.21875 C 7.34375 -4.34375 8.625 -5.375 8.625 -7.234375 C 8.625 -9.140625 7.265625 -10.359375 5.375 -10.359375 L 1.21875 -10.359375 L 1.21875 0 L 2.5 0 L 2.5 -4.109375 L 4.5625 -4.109375 L 7.203125 0 Z M 7.28125 -7.234375 C 7.28125 -6.078125 6.453125 -5.25 5.21875 -5.25 L 2.5 -5.25 L 2.5 -9.203125 L 5.21875 -9.203125 C 6.453125 -9.203125 7.28125 -8.40625 7.28125 -7.234375 Z M 7.28125 -7.234375 "/></g></g></g><g fill="#ffffff" fill-opacity="1"><g transform="translate(172.398201, 191.249987)"><g/></g></g><g fill="#ffffff" fill-opacity="1"><g transform="translate(184.864421, 191.249987)"><g/></g></g><path fill="#000000" d="M 172.167969 176.449219 L 231.769531 176.449219 L 231.769531 201.410156 L 172.167969 201.410156 L 172.167969 176.449219 " fill-opacity="1" fill-rule="nonzero"/><g fill="#ffffff" fill-opacity="1"><g transform="translate(181.236585, 193.055407)"><g><path d="M 6.140625 -10.953125 C 6.179688 -10.953125 6.222656 -10.878906 6.265625 -10.734375 C 6.285156 -10.640625 6.304688 -10.554688 6.328125 -10.484375 C 6.617188 -9.378906 7.273438 -8.347656 8.296875 -7.390625 C 9.316406 -6.441406 10.425781 -5.816406 11.625 -5.515625 C 11.726562 -5.492188 11.78125 -5.453125 11.78125 -5.390625 C 11.78125 -5.316406 11.722656 -5.269531 11.609375 -5.25 C 10.359375 -4.976562 9.195312 -4.296875 8.125 -3.203125 C 7.050781 -2.117188 6.40625 -1.035156 6.1875 0.046875 C 6.15625 0.148438 6.113281 0.203125 6.0625 0.203125 C 6 0.203125 5.960938 0.144531 5.953125 0.03125 C 5.847656 -0.53125 5.617188 -1.113281 5.265625 -1.71875 C 4.921875 -2.332031 4.507812 -2.867188 4.03125 -3.328125 C 3.625 -3.734375 3.066406 -4.144531 2.359375 -4.5625 C 1.648438 -4.976562 1.101562 -5.226562 0.71875 -5.3125 C 0.601562 -5.34375 0.546875 -5.390625 0.546875 -5.453125 C 0.546875 -5.523438 0.695312 -5.597656 1 -5.671875 C 1.300781 -5.753906 1.738281 -5.9375 2.3125 -6.21875 C 2.894531 -6.507812 3.4375 -6.921875 3.9375 -7.453125 C 4.457031 -7.984375 4.910156 -8.5625 5.296875 -9.1875 C 5.691406 -9.8125 5.929688 -10.34375 6.015625 -10.78125 C 6.035156 -10.894531 6.078125 -10.953125 6.140625 -10.953125 Z M 6.140625 -10.953125 "/></g></g></g><g fill="#ffffff" fill-opacity="1"><g transform="translate(199.260022, 193.055407)"><g/></g></g><g fill="#ffffff" fill-opacity="1"><g transform="translate(208.977653, 193.055407)"><g/></g></g><g fill="#ffffff" fill-opacity="1"><g transform="translate(218.695284, 193.055407)"><g/></g></g><path fill="#000000" d="M 197.5 174.644531 L 320.113281 174.644531 L 320.113281 199.605469 L 197.5 199.605469 L 197.5 174.644531 " fill-opacity="1" fill-rule="nonzero"/><g fill="#ffffff" fill-opacity="1"><g transform="translate(207.943174, 191.249987)"><g><path d="M 0.796875 -5.171875 C 0.796875 -2.109375 2.859375 0.1875 5.9375 0.1875 C 9 0.1875 11.078125 -2.109375 11.078125 -5.171875 C 11.078125 -8.234375 9 -10.53125 5.9375 -10.53125 C 2.859375 -10.53125 0.796875 -8.234375 0.796875 -5.171875 Z M 9.734375 -5.171875 C 9.734375 -2.765625 8.25 -0.96875 5.9375 -0.96875 C 3.609375 -0.96875 2.125 -2.765625 2.125 -5.171875 C 2.125 -7.59375 3.609375 -9.375 5.9375 -9.375 C 8.25 -9.375 9.734375 -7.59375 9.734375 -5.171875 Z M 9.734375 -5.171875 "/></g></g></g><g fill="#ffffff" fill-opacity="1"><g transform="translate(228.275844, 191.249987)"><g><path d="M 8.734375 0 L 5.9375 -4.21875 C 7.34375 -4.34375 8.625 -5.375 8.625 -7.234375 C 8.625 -9.140625 7.265625 -10.359375 5.375 -10.359375 L 1.21875 -10.359375 L 1.21875 0 L 2.5 0 L 2.5 -4.109375 L 4.5625 -4.109375 L 7.203125 0 Z M 7.28125 -7.234375 C 7.28125 -6.078125 6.453125 -5.25 5.21875 -5.25 L 2.5 -5.25 L 2.5 -9.203125 L 5.21875 -9.203125 C 6.453125 -9.203125 7.28125 -8.40625 7.28125 -7.234375 Z M 7.28125 -7.234375 "/></g></g></g><g fill="#ffffff" fill-opacity="1"><g transform="translate(246.172549, 191.249987)"><g><path d="M 5.0625 0 L 5.0625 -9.203125 L 8.359375 -9.203125 L 8.359375 -10.359375 L 0.5 -10.359375 L 0.5 -9.203125 L 3.78125 -9.203125 L 3.78125 0 Z M 5.0625 0 "/></g></g></g><g fill="#ffffff" fill-opacity="1"><g transform="translate(263.479653, 191.249987)"><g><path d="M 2.5 0 L 2.5 -10.359375 L 1.21875 -10.359375 L 1.21875 0 Z M 2.5 0 "/></g></g></g><g fill="#ffffff" fill-opacity="1"><g transform="translate(275.651074, 191.249987)"><g><path d="M 8.328125 0 L 8.328125 -1.15625 L 2.390625 -1.15625 L 8.21875 -9.28125 L 8.21875 -10.359375 L 0.75 -10.359375 L 0.75 -9.203125 L 6.5625 -9.203125 L 0.75 -1.078125 L 0.75 0 Z M 8.328125 0 "/></g></g></g><g fill="#ffffff" fill-opacity="1"><g transform="translate(293.197075, 191.249987)"><g/></g></g><g fill="#ffffff" fill-opacity="1"><g transform="translate(305.663295, 191.249987)"><g/></g></g></svg>